<?xml version="1.0" encoding="utf-8"?>
<!-- Generator: Adobe Adobe Illustrator 24.2.0, SVG Export Plug-In . SVG Version: 6.00 Build 0)  -->
<svg version="1.1" xmlns="http://www.w3.org/2000/svg" xmlns:xlink="http://www.w3.org/1999/xlink" x="0px" y="0px"
	 viewBox="0 0 595.28 841.89" style="enable-background:new 0 0 595.28 841.89;" xml:space="preserve">
<style type="text/css">
	.st0{display:none;}
	.st1{display:inline;fill:none;stroke:#000000;stroke-width:5;stroke-miterlimit:10;}
	.st2{display:inline;fill:none;stroke:#000000;stroke-width:3;stroke-miterlimit:10;}
	.st3{display:inline;}
	.st4{display:inline;fill:none;stroke:#000000;stroke-miterlimit:10;}
	.st5{fill:none;stroke:#000000;stroke-miterlimit:10;}
	.st6{fill:none;stroke:#000000;stroke-width:6;stroke-miterlimit:10;}
	.st7{fill:none;stroke:#000000;stroke-width:8;stroke-miterlimit:10;}
	.st8{fill:#E8DFCC;stroke:#000000;stroke-width:6;stroke-miterlimit:10;}
	.st9{fill:#E8DFCC;stroke:#000000;stroke-width:8;stroke-miterlimit:10;}
	.st10{stroke:#000000;stroke-width:6;stroke-miterlimit:10;}
	.st11{fill:none;stroke:#FFFFFF;stroke-width:8;stroke-miterlimit:10;}
	.st12{fill:#FFFFFF;}
	.st13{fill:none;stroke:#FFFFFF;stroke-width:6;stroke-miterlimit:10;}
	.st14{fill:#122E45;stroke:#122E45;stroke-width:6;stroke-miterlimit:10;}
	.st15{fill:#D3B4A4;stroke:#D3B4A4;stroke-width:6;stroke-miterlimit:10;}
</style>
<g id="Layer_2" class="st0">
</g>
<g id="Layer_1" class="st0">
</g>
<g id="Layer_3" class="st0">
</g>
<g id="Layer_4" class="st0">
</g>
<g id="Layer_5" class="st0">
</g>
<g id="Layer_6">
</g>
<g id="Layer_7" class="st0">
</g>
<g id="Layer_8">
	<circle class="st15" cx="297.64" cy="415.97" r="162.89"/>
	<g>
		<path class="st11" d="M262.79,549.72c11.69-13.69,33.49-41.44,38.01-58.87c4.52-17.43,5.85-35.56,5.56-53.57
			c-0.23-14.23-1.48-28.55-5.34-42.24s-10.46-26.82-20.37-37.03"/>
		<path class="st12" d="M305.15,418.71c3.78-18.25,5.85-36.94,11.77-54.61s16.36-34.72,32.62-43.84
			c3.66,10.77,7.37,22.06,5.65,33.31c-2.09,13.69-11.83,24.88-21.95,34.34C323.13,397.37,311.96,406.27,305.15,418.71z"/>
		<path class="st12" d="M345.39,425.26c-4.7-10.02-2.65-22.09,2.23-32.02c4.88-9.93,12.31-18.34,18.88-27.25
			c8.13-11.01,15.03-22.93,20.53-35.46c5.32,13.13,10.7,26.46,12.23,40.54c1.54,14.08-1.24,29.25-10.58,39.9
			C378.22,422.89,360.99,427.25,345.39,425.26z"/>
		<path class="st12" d="M313.93,460.33c9.21-10.2,21.63-17.45,35.04-20.45c13.44-3.01,27.77-1.87,40.66-6.7
			c-3.68,15.58-15.52,28.98-30.52,34.58C344.12,473.34,326.4,470.95,313.93,460.33z"/>
		<path class="st12" d="M290.37,465.96c-15.22-6.84-28.31-18.33-37.05-32.54s-13.1-31.07-12.35-47.74c0.11-2.37,0.46-5.02,2.32-6.51
			c2.55-2.03,6.29-0.72,9.16,0.82c23.93,12.9,40.65,38.3,43.04,65.38C296.12,452.48,295.66,460.16,290.37,465.96z"/>
		<path class="st12" d="M276.79,383.05c-13.94,2.97-28.77-4.32-37.25-15.77c-8.49-11.45-11.32-26.3-10.64-40.53
			c11.25,6.54,22.41,13.54,31.46,22.89C269.41,358.99,276.27,371,276.79,383.05z"/>
		<path class="st12" d="M282.01,363.56c-13.56-7.87-23.34-21.97-25.96-37.43c-2.62-15.46,1.97-31.99,12.18-43.9
			c4.37,7.84,8.73,15.67,13.1,23.51c5.19,9.31,10.46,18.87,12.03,29.41C294.93,345.69,292.02,357.57,282.01,363.56z"/>
		<path class="st13" d="M304.17,469.89c16.86-15.7,32.37-32.84,46.32-51.17"/>
		<path class="st13" d="M302.88,402.91c-4.77-11.46-15.51-20.23-27.69-22.61"/>
		<path class="st13" d="M301.18,488.44c-0.81-11.95-6.71-23.48-15.95-31.11"/>
	</g>
</g>
<g id="Layer_11">
</g>
<g id="Layer_9">
</g>
<g id="Layer_10">
</g>
</svg>
